
<global>
amp_veltrack=0
ampeg_release=7.00
</global>

<group>
group_label=RR1
seq_length=4
seq_position=1

<region>
hivel=103
key=A#2
lovel=78
sample=Timpani_sustain_F_A#2_RR1.opus
</region>

<region>
hivel=103
key=A2
lovel=78
sample=Timpani_sustain_F_A2_RR1.opus
</region>

<region>
hivel=103
key=A3
lovel=78
sample=Timpani_sustain_F_A3_RR1.opus
</region>

<region>
hivel=103
key=B2
lovel=78
sample=Timpani_sustain_F_B2_RR1.opus
</region>

<region>
hivel=103
key=C#2
lovel=78
sample=Timpani_sustain_F_C#2_RR1.opus
</region>

<region>
hivel=103
key=C#3
lovel=78
sample=Timpani_sustain_F_C#3_RR1.opus
</region>

<region>
hivel=103
key=C2
lovel=78
offset=102
sample=Timpani_sustain_F_C2_RR1.opus
</region>

<region>
hivel=103
key=C3
lovel=78
sample=Timpani_sustain_F_C3_RR1.opus
</region>

<region>
hivel=103
key=D#2
lovel=78
sample=Timpani_sustain_F_D#2_RR1.opus
</region>

<region>
hivel=103
key=D#3
lovel=78
sample=Timpani_sustain_F_D#3_RR1.opus
</region>

<region>
hivel=103
key=D2
lovel=78
sample=Timpani_sustain_F_D2_RR1.opus
</region>

<region>
hivel=103
key=D3
lovel=78
sample=Timpani_sustain_F_D3_RR1.opus
</region>

<region>
hivel=103
key=E2
lovel=78
sample=Timpani_sustain_F_E2_RR1.opus
</region>

<region>
hivel=103
key=E3
lovel=78
sample=Timpani_sustain_F_E3_RR1.opus
</region>

<region>
hivel=103
key=F#2
lovel=78
sample=Timpani_sustain_F_F#2_RR1.opus
</region>

<region>
hivel=103
key=F#3
lovel=78
sample=Timpani_sustain_F_F#3_RR1.opus
</region>

<region>
hivel=103
key=F2
lovel=78
sample=Timpani_sustain_F_F2_RR1.opus
</region>

<region>
hivel=103
key=F3
lovel=78
sample=Timpani_sustain_F_F3_RR1.opus
</region>

<region>
hivel=103
key=G#2
lovel=78
sample=Timpani_sustain_F_G#2_RR1.opus
</region>

<region>
hivel=103
key=G#3
lovel=78
sample=Timpani_sustain_F_G#3_RR1.opus
</region>

<region>
hivel=103
key=G2
lovel=78
sample=Timpani_sustain_F_G2_RR1.opus
</region>

<region>
hivel=103
key=G3
lovel=78
sample=Timpani_sustain_F_G3_RR1.opus
</region>

<region>
hivel=127
key=A#2
lovel=104
sample=Timpani_sustain_FF_A#2_RR1.opus
</region>

<region>
hivel=127
key=A2
lovel=104
sample=Timpani_sustain_FF_A2_RR1.opus
</region>

<region>
hivel=127
key=A3
lovel=104
sample=Timpani_sustain_FF_A3_RR1.opus
</region>

<region>
hivel=127
key=B2
lovel=104
sample=Timpani_sustain_FF_B2_RR1.opus
</region>

<region>
hivel=127
key=C#2
lovel=104
offset=416
sample=Timpani_sustain_FF_C#2_RR1.opus
</region>

<region>
hivel=127
key=C#3
lovel=104
sample=Timpani_sustain_FF_C#3_RR1.opus
</region>

<region>
hivel=127
key=C2
lovel=104
sample=Timpani_sustain_FF_C2_RR1.opus
</region>

<region>
hivel=127
key=C3
lovel=104
sample=Timpani_sustain_FF_C3_RR1.opus
</region>

<region>
hivel=127
key=D#2
lovel=104
sample=Timpani_sustain_FF_D#2_RR1.opus
</region>

<region>
hivel=127
key=D#3
lovel=104
sample=Timpani_sustain_FF_D#3_RR1.opus
</region>

<region>
hivel=127
key=D2
lovel=104
sample=Timpani_sustain_FF_D2_RR1.opus
</region>

<region>
hivel=127
key=D3
lovel=104
sample=Timpani_sustain_FF_D3_RR1.opus
</region>

<region>
hivel=127
key=E2
lovel=104
sample=Timpani_sustain_FF_E2_RR1.opus
</region>

<region>
hivel=127
key=E3
lovel=104
sample=Timpani_sustain_FF_E3_RR1.opus
</region>

<region>
hivel=127
key=F#2
lovel=104
sample=Timpani_sustain_FF_F#2_RR1.opus
</region>

<region>
hivel=127
key=F#3
lovel=104
sample=Timpani_sustain_FF_F#3_RR1.opus
</region>

<region>
hivel=127
key=F2
lovel=104
sample=Timpani_sustain_FF_F2_RR1.opus
</region>

<region>
hivel=127
key=F3
lovel=104
sample=Timpani_sustain_FF_F3_RR1.opus
</region>

<region>
hivel=127
key=G#2
lovel=104
sample=Timpani_sustain_FF_G#2_RR1.opus
</region>

<region>
hivel=127
key=G#3
lovel=104
sample=Timpani_sustain_FF_G#3_RR1.opus
</region>

<region>
hivel=127
key=G2
lovel=104
sample=Timpani_sustain_FF_G2_RR1.opus
</region>

<region>
hivel=127
key=G3
lovel=104
sample=Timpani_sustain_FF_G3_RR1.opus
</region>

<region>
hivel=77
key=A#2
lovel=52
sample=Timpani_sustain_MF_A#2_RR1.opus
</region>

<region>
hivel=77
key=A2
lovel=52
offset=3373
sample=Timpani_sustain_MF_A2_RR1.opus
</region>

<region>
hivel=77
key=A3
lovel=52
sample=Timpani_sustain_MF_A3_RR1.opus
</region>

<region>
hivel=77
key=B2
lovel=52
sample=Timpani_sustain_MF_B2_RR1.opus
</region>

<region>
hivel=77
key=C#2
lovel=52
offset=6109
sample=Timpani_sustain_MF_C#2_RR1.opus
</region>

<region>
hivel=77
key=C#3
lovel=52
sample=Timpani_sustain_MF_C#3_RR1.opus
</region>

<region>
hivel=77
key=C2
lovel=52
offset=3750
sample=Timpani_sustain_MF_C2_RR1.opus
</region>

<region>
hivel=77
key=C3
lovel=52
sample=Timpani_sustain_MF_C3_RR1.opus
</region>

<region>
hivel=77
key=D#2
lovel=52
sample=Timpani_sustain_MF_D#2_RR1.opus
</region>

<region>
hivel=77
key=D#3
lovel=52
sample=Timpani_sustain_MF_D#3_RR1.opus
</region>

<region>
hivel=77
key=D2
lovel=52
offset=4308
sample=Timpani_sustain_MF_D2_RR1.opus
</region>

<region>
hivel=77
key=D3
lovel=52
sample=Timpani_sustain_MF_D3_RR1.opus
</region>

<region>
hivel=77
key=E2
lovel=52
offset=3108
sample=Timpani_sustain_MF_E2_RR1.opus
</region>

<region>
hivel=77
key=E3
lovel=52
sample=Timpani_sustain_MF_E3_RR1.opus
</region>

<region>
hivel=77
key=F#2
lovel=52
offset=2316
sample=Timpani_sustain_MF_F#2_RR1.opus
</region>

<region>
hivel=77
key=F#3
lovel=52
sample=Timpani_sustain_MF_F#3_RR1.opus
</region>

<region>
hivel=77
key=F2
lovel=52
offset=1970
sample=Timpani_sustain_MF_F2_RR1.opus
</region>

<region>
hivel=77
key=F3
lovel=52
sample=Timpani_sustain_MF_F3_RR1.opus
</region>

<region>
hivel=77
key=G#2
lovel=52
offset=5315
sample=Timpani_sustain_MF_G#2_RR1.opus
</region>

<region>
hivel=77
key=G#3
lovel=52
sample=Timpani_sustain_MF_G#3_RR1.opus
</region>

<region>
hivel=77
key=G2
lovel=52
sample=Timpani_sustain_MF_G2_RR1.opus
</region>

<region>
hivel=77
key=G3
lovel=52
sample=Timpani_sustain_MF_G3_RR1.opus
</region>

<region>
hivel=51
key=A#2
lovel=26
offset=2343
sample=Timpani_sustain_MP_A#2_RR1.opus
</region>

<region>
hivel=51
key=A2
lovel=26
offset=264
sample=Timpani_sustain_MP_A2_RR1.opus
</region>

<region>
hivel=51
key=A3
lovel=26
offset=431
sample=Timpani_sustain_MP_A3_RR1.opus
</region>

<region>
hivel=51
key=B2
lovel=26
offset=1788
sample=Timpani_sustain_MP_B2_RR1.opus
</region>

<region>
hivel=51
key=C#2
lovel=26
offset=2702
sample=Timpani_sustain_MP_C#2_RR1.opus
</region>

<region>
hivel=51
key=C#3
lovel=26
offset=3002
sample=Timpani_sustain_MP_C#3_RR1.opus
</region>

<region>
hivel=51
key=C2
lovel=26
offset=3834
sample=Timpani_sustain_MP_C2_RR1.opus
</region>

<region>
hivel=51
key=C3
lovel=26
offset=2038
sample=Timpani_sustain_MP_C3_RR1.opus
</region>

<region>
hivel=51
key=D#2
lovel=26
offset=4762
sample=Timpani_sustain_MP_D#2_RR1.opus
</region>

<region>
hivel=51
key=D#3
lovel=26
offset=3386
sample=Timpani_sustain_MP_D#3_RR1.opus
</region>

<region>
hivel=51
key=D2
lovel=26
offset=4726
sample=Timpani_sustain_MP_D2_RR1.opus
</region>

<region>
hivel=51
key=D3
lovel=26
offset=4650
sample=Timpani_sustain_MP_D3_RR1.opus
</region>

<region>
hivel=51
key=E2
lovel=26
offset=3763
sample=Timpani_sustain_MP_E2_RR1.opus
</region>

<region>
hivel=51
key=E3
lovel=26
offset=539
sample=Timpani_sustain_MP_E3_RR1.opus
</region>

<region>
hivel=51
key=F#2
lovel=26
offset=1547
sample=Timpani_sustain_MP_F#2_RR1.opus
</region>

<region>
hivel=51
key=F#3
lovel=26
offset=848
sample=Timpani_sustain_MP_F#3_RR1.opus
</region>

<region>
hivel=51
key=F2
lovel=26
offset=1924
sample=Timpani_sustain_MP_F2_RR1.opus
</region>

<region>
hivel=51
key=F3
lovel=26
sample=Timpani_sustain_MP_F3_RR1.opus
</region>

<region>
hivel=51
key=G#2
lovel=26
offset=1931
sample=Timpani_sustain_MP_G#2_RR1.opus
</region>

<region>
hivel=51
key=G#3
lovel=26
offset=1879
sample=Timpani_sustain_MP_G#3_RR1.opus
</region>

<region>
hivel=51
key=G2
lovel=26
offset=2647
sample=Timpani_sustain_MP_G2_RR1.opus
</region>

<region>
hivel=51
key=G3
lovel=26
offset=2599
sample=Timpani_sustain_MP_G3_RR1.opus
</region>

<region>
hivel=25
key=A#2
lovel=0
offset=2085
sample=Timpani_sustain_P_A#2_RR1.opus
</region>

<region>
hivel=25
key=A2
lovel=0
offset=4195
sample=Timpani_sustain_P_A2_RR1.opus
</region>

<region>
hivel=25
key=A3
lovel=0
offset=2621
sample=Timpani_sustain_P_A3_RR1.opus
</region>

<region>
hivel=25
key=C#2
lovel=0
offset=5093
sample=Timpani_sustain_P_C#2_RR1.opus
</region>

<region>
hivel=25
key=C#3
lovel=0
offset=3502
sample=Timpani_sustain_P_C#3_RR1.opus
</region>

<region>
hivel=25
key=C2
lovel=0
sample=Timpani_sustain_P_C2_RR1.opus
</region>

<region>
hivel=25
key=C3
lovel=0
offset=607
sample=Timpani_sustain_P_C3_RR1.opus
</region>

<region>
hivel=25
key=D#2
lovel=0
offset=4763
sample=Timpani_sustain_P_D#2_RR1.opus
</region>

<region>
hivel=25
key=D#3
lovel=0
offset=738
sample=Timpani_sustain_P_D#3_RR1.opus
</region>

<region>
hivel=25
key=D2
lovel=0
offset=4538
sample=Timpani_sustain_P_D2_RR1.opus
</region>

<region>
hivel=25
key=D3
lovel=0
offset=3122
sample=Timpani_sustain_P_D3_RR1.opus
</region>

<region>
hivel=25
key=E2
lovel=0
offset=4618
sample=Timpani_sustain_P_E2_RR1.opus
</region>

<region>
hivel=25
key=E3
lovel=0
sample=Timpani_sustain_P_E3_RR1.opus
</region>

<region>
hivel=25
key=F#2
lovel=0
offset=1133
sample=Timpani_sustain_P_F#2_RR1.opus
</region>

<region>
hivel=25
key=F#3
lovel=0
offset=394
sample=Timpani_sustain_P_F#3_RR1.opus
</region>

<region>
hivel=25
key=F2
lovel=0
offset=2253
sample=Timpani_sustain_P_F2_RR1.opus
</region>

<region>
hivel=25
key=F3
lovel=0
offset=2453
sample=Timpani_sustain_P_F3_RR1.opus
</region>

<region>
hivel=25
key=G#2
lovel=0
offset=3576
sample=Timpani_sustain_P_G#2_RR1.opus
</region>

<region>
hivel=25
key=G#3
lovel=0
offset=2855
sample=Timpani_sustain_P_G#3_RR1.opus
</region>

<region>
hivel=25
key=G2
lovel=0
offset=2356
sample=Timpani_sustain_P_G2_RR1.opus
</region>

<region>
hivel=25
key=G3
lovel=0
offset=1155
sample=Timpani_sustain_P_G3_RR1.opus
</region>

<region>
hivel=25
key=B2
lovel=0
offset=3077
sample=Timpani_sustain_P_B2_RR3.opus
</region>
</group>

<group>
group_label=RR2
seq_length=4
seq_position=2

<region>
hivel=103
key=A#2
lovel=78
sample=Timpani_sustain_F_A#2_RR2.opus
</region>

<region>
hivel=103
key=A2
lovel=78
sample=Timpani_sustain_F_A2_RR2.opus
</region>

<region>
hivel=103
key=A3
lovel=78
sample=Timpani_sustain_F_A3_RR2.opus
</region>

<region>
hivel=103
key=B2
lovel=78
sample=Timpani_sustain_F_B2_RR2.opus
</region>

<region>
hivel=103
key=C#2
lovel=78
sample=Timpani_sustain_F_C#2_RR2.opus
</region>

<region>
hivel=103
key=C#3
lovel=78
sample=Timpani_sustain_F_C#3_RR2.opus
</region>

<region>
hivel=103
key=C2
lovel=78
sample=Timpani_sustain_F_C2_RR2.opus
</region>

<region>
hivel=103
key=C3
lovel=78
sample=Timpani_sustain_F_C3_RR2.opus
</region>

<region>
hivel=103
key=D#2
lovel=78
sample=Timpani_sustain_F_D#2_RR2.opus
</region>

<region>
hivel=103
key=D#3
lovel=78
sample=Timpani_sustain_F_D#3_RR2.opus
</region>

<region>
hivel=103
key=D2
lovel=78
offset=1465
sample=Timpani_sustain_F_D2_RR2.opus
</region>

<region>
hivel=103
key=D3
lovel=78
sample=Timpani_sustain_F_D3_RR2.opus
</region>

<region>
hivel=103
key=E2
lovel=78
sample=Timpani_sustain_F_E2_RR2.opus
</region>

<region>
hivel=103
key=E3
lovel=78
sample=Timpani_sustain_F_E3_RR2.opus
</region>

<region>
hivel=103
key=F#2
lovel=78
sample=Timpani_sustain_F_F#2_RR2.opus
</region>

<region>
hivel=103
key=F#3
lovel=78
sample=Timpani_sustain_F_F#3_RR2.opus
</region>

<region>
hivel=103
key=F2
lovel=78
sample=Timpani_sustain_F_F2_RR2.opus
</region>

<region>
hivel=103
key=F3
lovel=78
sample=Timpani_sustain_F_F3_RR2.opus
</region>

<region>
hivel=103
key=G#2
lovel=78
sample=Timpani_sustain_F_G#2_RR2.opus
</region>

<region>
hivel=103
key=G#3
lovel=78
sample=Timpani_sustain_F_G#3_RR2.opus
</region>

<region>
hivel=103
key=G2
lovel=78
sample=Timpani_sustain_F_G2_RR2.opus
</region>

<region>
hivel=103
key=G3
lovel=78
sample=Timpani_sustain_F_G3_RR2.opus
</region>

<region>
hivel=127
key=A#2
lovel=104
sample=Timpani_sustain_FF_A#2_RR2.opus
</region>

<region>
hivel=127
key=A2
lovel=104
sample=Timpani_sustain_FF_A2_RR2.opus
</region>

<region>
hivel=127
key=A3
lovel=104
sample=Timpani_sustain_FF_A3_RR2.opus
</region>

<region>
hivel=127
key=B2
lovel=104
sample=Timpani_sustain_FF_B2_RR2.opus
</region>

<region>
hivel=127
key=C#2
lovel=104
sample=Timpani_sustain_FF_C#2_RR2.opus
</region>

<region>
hivel=127
key=C#3
lovel=104
sample=Timpani_sustain_FF_C#3_RR2.opus
</region>

<region>
hivel=127
key=C2
lovel=104
offset=283
sample=Timpani_sustain_FF_C2_RR2.opus
</region>

<region>
hivel=127
key=C3
lovel=104
sample=Timpani_sustain_FF_C3_RR2.opus
</region>

<region>
hivel=127
key=D#2
lovel=104
sample=Timpani_sustain_FF_D#2_RR2.opus
</region>

<region>
hivel=127
key=D#3
lovel=104
sample=Timpani_sustain_FF_D#3_RR2.opus
</region>

<region>
hivel=127
key=D2
lovel=104
sample=Timpani_sustain_FF_D2_RR2.opus
</region>

<region>
hivel=127
key=D3
lovel=104
sample=Timpani_sustain_FF_D3_RR2.opus
</region>

<region>
hivel=127
key=E2
lovel=104
sample=Timpani_sustain_FF_E2_RR2.opus
</region>

<region>
hivel=127
key=E3
lovel=104
sample=Timpani_sustain_FF_E3_RR2.opus
</region>

<region>
hivel=127
key=F#2
lovel=104
sample=Timpani_sustain_FF_F#2_RR2.opus
</region>

<region>
hivel=127
key=F#3
lovel=104
sample=Timpani_sustain_FF_F#3_RR2.opus
</region>

<region>
hivel=127
key=F2
lovel=104
sample=Timpani_sustain_FF_F2_RR2.opus
</region>

<region>
hivel=127
key=F3
lovel=104
sample=Timpani_sustain_FF_F3_RR2.opus
</region>

<region>
hivel=127
key=G#2
lovel=104
sample=Timpani_sustain_FF_G#2_RR2.opus
</region>

<region>
hivel=127
key=G#3
lovel=104
sample=Timpani_sustain_FF_G#3_RR2.opus
</region>

<region>
hivel=127
key=G2
lovel=104
sample=Timpani_sustain_FF_G2_RR2.opus
</region>

<region>
hivel=127
key=G3
lovel=104
sample=Timpani_sustain_FF_G3_RR2.opus
</region>

<region>
hivel=77
key=A#2
lovel=52
sample=Timpani_sustain_MF_A#2_RR2.opus
</region>

<region>
hivel=77
key=A2
lovel=52
offset=2677
sample=Timpani_sustain_MF_A2_RR2.opus
</region>

<region>
hivel=77
key=A3
lovel=52
sample=Timpani_sustain_MF_A3_RR2.opus
</region>

<region>
hivel=77
key=B2
lovel=52
sample=Timpani_sustain_MF_B2_RR2.opus
</region>

<region>
hivel=77
key=C#2
lovel=52
sample=Timpani_sustain_MF_C#2_RR2.opus
</region>

<region>
hivel=77
key=C#3
lovel=52
sample=Timpani_sustain_MF_C#3_RR2.opus
</region>

<region>
hivel=77
key=C2
lovel=52
offset=1064
sample=Timpani_sustain_MF_C2_RR2.opus
</region>

<region>
hivel=77
key=C3
lovel=52
sample=Timpani_sustain_MF_C3_RR2.opus
</region>

<region>
hivel=77
key=D#2
lovel=52
offset=4257
sample=Timpani_sustain_MF_D#2_RR2.opus
</region>

<region>
hivel=77
key=D#3
lovel=52
sample=Timpani_sustain_MF_D#3_RR2.opus
</region>

<region>
hivel=77
key=D2
lovel=52
offset=3935
sample=Timpani_sustain_MF_D2_RR2.opus
</region>

<region>
hivel=77
key=D3
lovel=52
sample=Timpani_sustain_MF_D3_RR2.opus
</region>

<region>
hivel=77
key=E2
lovel=52
offset=2824
sample=Timpani_sustain_MF_E2_RR2.opus
</region>

<region>
hivel=77
key=E3
lovel=52
sample=Timpani_sustain_MF_E3_RR2.opus
</region>

<region>
hivel=77
key=F#2
lovel=52
offset=2445
sample=Timpani_sustain_MF_F#2_RR2.opus
</region>

<region>
hivel=77
key=F#3
lovel=52
sample=Timpani_sustain_MF_F#3_RR2.opus
</region>

<region>
hivel=77
key=F2
lovel=52
offset=4803
sample=Timpani_sustain_MF_F2_RR2.opus
</region>

<region>
hivel=77
key=F3
lovel=52
sample=Timpani_sustain_MF_F3_RR2.opus
</region>

<region>
hivel=77
key=G#2
lovel=52
offset=5236
sample=Timpani_sustain_MF_G#2_RR2.opus
</region>

<region>
hivel=77
key=G#3
lovel=52
sample=Timpani_sustain_MF_G#3_RR2.opus
</region>

<region>
hivel=77
key=G2
lovel=52
offset=1182
sample=Timpani_sustain_MF_G2_RR2.opus
</region>

<region>
hivel=77
key=G3
lovel=52
sample=Timpani_sustain_MF_G3_RR2.opus
</region>

<region>
hivel=51
key=A#2
lovel=26
offset=2518
sample=Timpani_sustain_MP_A#2_RR2.opus
</region>

<region>
hivel=51
key=A2
lovel=26
offset=3102
sample=Timpani_sustain_MP_A2_RR2.opus
</region>

<region>
hivel=51
key=A3
lovel=26
offset=298
sample=Timpani_sustain_MP_A3_RR2.opus
</region>

<region>
hivel=51
key=B2
lovel=26
sample=Timpani_sustain_MP_B2_RR2.opus
</region>

<region>
hivel=51
key=C#2
lovel=26
offset=4964
sample=Timpani_sustain_MP_C#2_RR2.opus
</region>

<region>
hivel=51
key=C#3
lovel=26
offset=3605
sample=Timpani_sustain_MP_C#3_RR2.opus
</region>

<region>
hivel=51
key=C2
lovel=26
offset=4899
sample=Timpani_sustain_MP_C2_RR2.opus
</region>

<region>
hivel=51
key=C3
lovel=26
offset=1930
sample=Timpani_sustain_MP_C3_RR2.opus
</region>

<region>
hivel=51
key=D#2
lovel=26
offset=4687
sample=Timpani_sustain_MP_D#2_RR2.opus
</region>

<region>
hivel=51
key=D#3
lovel=26
offset=2342
sample=Timpani_sustain_MP_D#3_RR2.opus
</region>

<region>
hivel=51
key=D2
lovel=26
offset=4732
sample=Timpani_sustain_MP_D2_RR2.opus
</region>

<region>
hivel=51
key=D3
lovel=26
offset=2308
sample=Timpani_sustain_MP_D3_RR2.opus
</region>

<region>
hivel=51
key=E2
lovel=26
offset=3962
sample=Timpani_sustain_MP_E2_RR2.opus
</region>

<region>
hivel=51
key=E3
lovel=26
sample=Timpani_sustain_MP_E3_RR2.opus
</region>

<region>
hivel=51
key=F#2
lovel=26
offset=2109
sample=Timpani_sustain_MP_F#2_RR2.opus
</region>

<region>
hivel=51
key=F#3
lovel=26
offset=4341
sample=Timpani_sustain_MP_F#3_RR2.opus
</region>

<region>
hivel=51
key=F2
lovel=26
offset=1037
sample=Timpani_sustain_MP_F2_RR2.opus
</region>

<region>
hivel=51
key=F3
lovel=26
offset=750
sample=Timpani_sustain_MP_F3_RR2.opus
</region>

<region>
hivel=51
key=G#2
lovel=26
offset=365
sample=Timpani_sustain_MP_G#2_RR2.opus
</region>

<region>
hivel=51
key=G#3
lovel=26
sample=Timpani_sustain_MP_G#3_RR2.opus
</region>

<region>
hivel=51
key=G2
lovel=26
offset=3649
sample=Timpani_sustain_MP_G2_RR2.opus
</region>

<region>
hivel=51
key=G3
lovel=26
offset=804
sample=Timpani_sustain_MP_G3_RR2.opus
</region>

<region>
hivel=25
key=A#2
lovel=0
offset=1780
sample=Timpani_sustain_P_A#2_RR2.opus
</region>

<region>
hivel=25
key=A2
lovel=0
offset=2008
sample=Timpani_sustain_P_A2_RR2.opus
</region>

<region>
hivel=25
key=A3
lovel=0
offset=1192
sample=Timpani_sustain_P_A3_RR2.opus
</region>

<region>
hivel=25
key=B2
lovel=0
offset=360
sample=Timpani_sustain_P_B2_RR2.opus
</region>

<region>
hivel=25
key=C#2
lovel=0
offset=2748
sample=Timpani_sustain_P_C#2_RR2.opus
</region>

<region>
hivel=25
key=C#3
lovel=0
offset=547
sample=Timpani_sustain_P_C#3_RR2.opus
</region>

<region>
hivel=25
key=C2
lovel=0
sample=Timpani_sustain_P_C2_RR2.opus
</region>

<region>
hivel=25
key=C3
lovel=0
offset=3338
sample=Timpani_sustain_P_C3_RR2.opus
</region>

<region>
hivel=25
key=D#2
lovel=0
offset=4688
sample=Timpani_sustain_P_D#2_RR2.opus
</region>

<region>
hivel=25
key=D#3
lovel=0
offset=4394
sample=Timpani_sustain_P_D#3_RR2.opus
</region>

<region>
hivel=25
key=D2
lovel=0
offset=5092
sample=Timpani_sustain_P_D2_RR2.opus
</region>

<region>
hivel=25
key=D3
lovel=0
offset=1470
sample=Timpani_sustain_P_D3_RR2.opus
</region>

<region>
hivel=25
key=E2
lovel=0
offset=4731
sample=Timpani_sustain_P_E2_RR2.opus
</region>

<region>
hivel=25
key=E3
lovel=0
sample=Timpani_sustain_P_E3_RR2.opus
</region>

<region>
hivel=25
key=F#2
lovel=0
offset=2323
sample=Timpani_sustain_P_F#2_RR2.opus
</region>

<region>
hivel=25
key=F#3
lovel=0
offset=3223
sample=Timpani_sustain_P_F#3_RR2.opus
</region>

<region>
hivel=25
key=F2
lovel=0
sample=Timpani_sustain_P_F2_RR2.opus
</region>

<region>
hivel=25
key=F3
lovel=0
offset=1323
sample=Timpani_sustain_P_F3_RR2.opus
</region>

<region>
hivel=25
key=G#2
lovel=0
offset=3694
sample=Timpani_sustain_P_G#2_RR2.opus
</region>

<region>
hivel=25
key=G#3
lovel=0
offset=2150
sample=Timpani_sustain_P_G#3_RR2.opus
</region>

<region>
hivel=25
key=G2
lovel=0
offset=772
sample=Timpani_sustain_P_G2_RR2.opus
</region>

<region>
hivel=25
key=G3
lovel=0
offset=2813
sample=Timpani_sustain_P_G3_RR2.opus
</region>
</group>

<group>
group_label=RR3
seq_length=4
seq_position=3

<region>
hivel=103
key=A#2
lovel=78
sample=Timpani_sustain_F_A#2_RR3.opus
</region>

<region>
hivel=103
key=A2
lovel=78
sample=Timpani_sustain_F_A2_RR3.opus
</region>

<region>
hivel=103
key=A3
lovel=78
sample=Timpani_sustain_F_A3_RR3.opus
</region>

<region>
hivel=103
key=B2
lovel=78
sample=Timpani_sustain_F_B2_RR3.opus
</region>

<region>
hivel=103
key=C#2
lovel=78
sample=Timpani_sustain_F_C#2_RR3.opus
</region>

<region>
hivel=103
key=C#3
lovel=78
sample=Timpani_sustain_F_C#3_RR3.opus
</region>

<region>
hivel=103
key=C2
lovel=78
offset=730
sample=Timpani_sustain_F_C2_RR3.opus
</region>

<region>
hivel=103
key=C3
lovel=78
sample=Timpani_sustain_F_C3_RR3.opus
</region>

<region>
hivel=103
key=D#2
lovel=78
sample=Timpani_sustain_F_D#2_RR3.opus
</region>

<region>
hivel=103
key=D#3
lovel=78
sample=Timpani_sustain_F_D#3_RR3.opus
</region>

<region>
hivel=103
key=D2
lovel=78
offset=1751
sample=Timpani_sustain_F_D2_RR3.opus
</region>

<region>
hivel=103
key=D3
lovel=78
sample=Timpani_sustain_F_D3_RR3.opus
</region>

<region>
hivel=103
key=E2
lovel=78
offset=1100
sample=Timpani_sustain_F_E2_RR3.opus
</region>

<region>
hivel=103
key=E3
lovel=78
sample=Timpani_sustain_F_E3_RR3.opus
</region>

<region>
hivel=103
key=F#2
lovel=78
sample=Timpani_sustain_F_F#2_RR3.opus
</region>

<region>
hivel=103
key=F#3
lovel=78
sample=Timpani_sustain_F_F#3_RR3.opus
</region>

<region>
hivel=103
key=F2
lovel=78
sample=Timpani_sustain_F_F2_RR3.opus
</region>

<region>
hivel=103
key=F3
lovel=78
sample=Timpani_sustain_F_F3_RR3.opus
</region>

<region>
hivel=103
key=G#2
lovel=78
offset=1665
sample=Timpani_sustain_F_G#2_RR3.opus
</region>

<region>
hivel=103
key=G#3
lovel=78
sample=Timpani_sustain_F_G#3_RR3.opus
</region>

<region>
hivel=103
key=G2
lovel=78
sample=Timpani_sustain_F_G2_RR3.opus
</region>

<region>
hivel=103
key=G3
lovel=78
sample=Timpani_sustain_F_G3_RR3.opus
</region>

<region>
hivel=127
key=A#2
lovel=104
sample=Timpani_sustain_FF_A#2_RR3.opus
</region>

<region>
hivel=127
key=A2
lovel=104
sample=Timpani_sustain_FF_A2_RR3.opus
</region>

<region>
hivel=127
key=A3
lovel=104
sample=Timpani_sustain_FF_A3_RR3.opus
</region>

<region>
hivel=127
key=B2
lovel=104
sample=Timpani_sustain_FF_B2_RR3.opus
</region>

<region>
hivel=127
key=C#2
lovel=104
sample=Timpani_sustain_FF_C#2_RR3.opus
</region>

<region>
hivel=127
key=C#3
lovel=104
sample=Timpani_sustain_FF_C#3_RR3.opus
</region>

<region>
hivel=127
key=C2
lovel=104
sample=Timpani_sustain_FF_C2_RR3.opus
</region>

<region>
hivel=127
key=C3
lovel=104
sample=Timpani_sustain_FF_C3_RR3.opus
</region>

<region>
hivel=127
key=D#2
lovel=104
sample=Timpani_sustain_FF_D#2_RR3.opus
</region>

<region>
hivel=127
key=D#3
lovel=104
sample=Timpani_sustain_FF_D#3_RR3.opus
</region>

<region>
hivel=127
key=D2
lovel=104
sample=Timpani_sustain_FF_D2_RR3.opus
</region>

<region>
hivel=127
key=D3
lovel=104
sample=Timpani_sustain_FF_D3_RR3.opus
</region>

<region>
hivel=127
key=E2
lovel=104
sample=Timpani_sustain_FF_E2_RR3.opus
</region>

<region>
hivel=127
key=E3
lovel=104
sample=Timpani_sustain_FF_E3_RR3.opus
</region>

<region>
hivel=127
key=F#2
lovel=104
offset=26
sample=Timpani_sustain_FF_F#2_RR3.opus
</region>

<region>
hivel=127
key=F#3
lovel=104
sample=Timpani_sustain_FF_F#3_RR3.opus
</region>

<region>
hivel=127
key=F2
lovel=104
sample=Timpani_sustain_FF_F2_RR3.opus
</region>

<region>
hivel=127
key=F3
lovel=104
sample=Timpani_sustain_FF_F3_RR3.opus
</region>

<region>
hivel=127
key=G#2
lovel=104
sample=Timpani_sustain_FF_G#2_RR3.opus
</region>

<region>
hivel=127
key=G#3
lovel=104
sample=Timpani_sustain_FF_G#3_RR3.opus
</region>

<region>
hivel=127
key=G2
lovel=104
sample=Timpani_sustain_FF_G2_RR3.opus
</region>

<region>
hivel=127
key=G3
lovel=104
sample=Timpani_sustain_FF_G3_RR3.opus
</region>

<region>
hivel=77
key=A#2
lovel=52
sample=Timpani_sustain_MF_A#2_RR3.opus
</region>

<region>
hivel=77
key=A2
lovel=52
offset=2731
sample=Timpani_sustain_MF_A2_RR3.opus
</region>

<region>
hivel=77
key=A3
lovel=52
sample=Timpani_sustain_MF_A3_RR3.opus
</region>

<region>
hivel=77
key=B2
lovel=52
sample=Timpani_sustain_MF_B2_RR3.opus
</region>

<region>
hivel=77
key=C#2
lovel=52
offset=4380
sample=Timpani_sustain_MF_C#2_RR3.opus
</region>

<region>
hivel=77
key=C#3
lovel=52
sample=Timpani_sustain_MF_C#3_RR3.opus
</region>

<region>
hivel=77
key=C2
lovel=52
offset=6009
sample=Timpani_sustain_MF_C2_RR3.opus
</region>

<region>
hivel=77
key=C3
lovel=52
sample=Timpani_sustain_MF_C3_RR3.opus
</region>

<region>
hivel=77
key=D#2
lovel=52
sample=Timpani_sustain_MF_D#2_RR3.opus
</region>

<region>
hivel=77
key=D#3
lovel=52
sample=Timpani_sustain_MF_D#3_RR3.opus
</region>

<region>
hivel=77
key=D2
lovel=52
offset=3832
sample=Timpani_sustain_MF_D2_RR3.opus
</region>

<region>
hivel=77
key=D3
lovel=52
sample=Timpani_sustain_MF_D3_RR3.opus
</region>

<region>
hivel=77
key=E2
lovel=52
offset=2765
sample=Timpani_sustain_MF_E2_RR3.opus
</region>

<region>
hivel=77
key=E3
lovel=52
sample=Timpani_sustain_MF_E3_RR3.opus
</region>

<region>
hivel=77
key=F#2
lovel=52
offset=3528
sample=Timpani_sustain_MF_F#2_RR3.opus
</region>

<region>
hivel=77
key=F#3
lovel=52
sample=Timpani_sustain_MF_F#3_RR3.opus
</region>

<region>
hivel=77
key=F2
lovel=52
sample=Timpani_sustain_MF_F2_RR3.opus
</region>

<region>
hivel=77
key=F3
lovel=52
sample=Timpani_sustain_MF_F3_RR3.opus
</region>

<region>
hivel=77
key=G#2
lovel=52
offset=2938
sample=Timpani_sustain_MF_G#2_RR3.opus
</region>

<region>
hivel=77
key=G#3
lovel=52
sample=Timpani_sustain_MF_G#3_RR3.opus
</region>

<region>
hivel=77
key=G2
lovel=52
sample=Timpani_sustain_MF_G2_RR3.opus
</region>

<region>
hivel=77
key=G3
lovel=52
sample=Timpani_sustain_MF_G3_RR3.opus
</region>

<region>
hivel=51
key=A#2
lovel=26
offset=1648
sample=Timpani_sustain_MP_A#2_RR3.opus
</region>

<region>
hivel=51
key=A2
lovel=26
sample=Timpani_sustain_MP_A2_RR3.opus
</region>

<region>
hivel=51
key=A3
lovel=26
offset=2299
sample=Timpani_sustain_MP_A3_RR3.opus
</region>

<region>
hivel=51
key=B2
lovel=26
offset=2855
sample=Timpani_sustain_MP_B2_RR3.opus
</region>

<region>
hivel=51
key=C#2
lovel=26
offset=3021
sample=Timpani_sustain_MP_C#2_RR3.opus
</region>

<region>
hivel=51
key=C#3
lovel=26
offset=4607
sample=Timpani_sustain_MP_C#3_RR3.opus
</region>

<region>
hivel=51
key=C2
lovel=26
offset=2551
sample=Timpani_sustain_MP_C2_RR3.opus
</region>

<region>
hivel=51
key=C3
lovel=26
offset=47966
sample=Timpani_sustain_MP_C3_RR3.opus
</region>

<region>
hivel=51
key=D#2
lovel=26
offset=4438
sample=Timpani_sustain_MP_D#2_RR3.opus
</region>

<region>
hivel=51
key=D#3
lovel=26
offset=952
sample=Timpani_sustain_MP_D#3_RR3.opus
</region>

<region>
hivel=51
key=D2
lovel=26
offset=4395
sample=Timpani_sustain_MP_D2_RR3.opus
</region>

<region>
hivel=51
key=D3
lovel=26
offset=1586
sample=Timpani_sustain_MP_D3_RR3.opus
</region>

<region>
hivel=51
key=E2
lovel=26
offset=2219
sample=Timpani_sustain_MP_E2_RR3.opus
</region>

<region>
hivel=51
key=E3
lovel=26
offset=2915
sample=Timpani_sustain_MP_E3_RR3.opus
</region>

<region>
hivel=51
key=F#2
lovel=26
offset=2429
sample=Timpani_sustain_MP_F#2_RR3.opus
</region>

<region>
hivel=51
key=F#3
lovel=26
offset=1365
sample=Timpani_sustain_MP_F#3_RR3.opus
</region>

<region>
hivel=51
key=F2
lovel=26
offset=3592
sample=Timpani_sustain_MP_F2_RR3.opus
</region>

<region>
hivel=51
key=F3
lovel=26
offset=2646
sample=Timpani_sustain_MP_F3_RR3.opus
</region>

<region>
hivel=51
key=G#2
lovel=26
offset=6439
sample=Timpani_sustain_MP_G#2_RR3.opus
</region>

<region>
hivel=51
key=G#3
lovel=26
offset=3699
sample=Timpani_sustain_MP_G#3_RR3.opus
</region>

<region>
hivel=51
key=G2
lovel=26
offset=811
sample=Timpani_sustain_MP_G2_RR3.opus
</region>

<region>
hivel=51
key=G3
lovel=26
offset=3020
sample=Timpani_sustain_MP_G3_RR3.opus
</region>

<region>
hivel=25
key=A#2
lovel=0
offset=1666
sample=Timpani_sustain_P_A#2_RR3.opus
</region>

<region>
hivel=25
key=A2
lovel=0
offset=751
sample=Timpani_sustain_P_A2_RR3.opus
</region>

<region>
hivel=25
key=A3
lovel=0
sample=Timpani_sustain_P_A3_RR3.opus
</region>

<region>
hivel=25
key=B2
lovel=0
offset=3077
sample=Timpani_sustain_P_B2_RR3.opus
</region>

<region>
hivel=25
key=C#2
lovel=0
sample=Timpani_sustain_P_C#2_RR3.opus
</region>

<region>
hivel=25
key=C#3
lovel=0
offset=2624
sample=Timpani_sustain_P_C#3_RR3.opus
</region>

<region>
hivel=25
key=C2
lovel=0
sample=Timpani_sustain_P_C2_RR3.opus
</region>

<region>
hivel=25
key=C3
lovel=0
offset=48629
sample=Timpani_sustain_P_C3_RR3.opus
</region>

<region>
hivel=25
key=D#2
lovel=0
offset=4440
sample=Timpani_sustain_P_D#2_RR3.opus
</region>

<region>
hivel=25
key=D#3
lovel=0
offset=1041
sample=Timpani_sustain_P_D#3_RR3.opus
</region>

<region>
hivel=25
key=D2
lovel=0
sample=Timpani_sustain_P_D2_RR3.opus
</region>

<region>
hivel=25
key=D3
lovel=0
offset=2813
sample=Timpani_sustain_P_D3_RR3.opus
</region>

<region>
hivel=25
key=E2
lovel=0
offset=6788
sample=Timpani_sustain_P_E2_RR3.opus
</region>

<region>
hivel=25
key=E3
lovel=0
offset=2917
sample=Timpani_sustain_P_E3_RR3.opus
</region>

<region>
hivel=25
key=F#2
lovel=0
offset=1375
sample=Timpani_sustain_P_F#2_RR3.opus
</region>

<region>
hivel=25
key=F#3
lovel=0
offset=2010
sample=Timpani_sustain_P_F#3_RR3.opus
</region>

<region>
hivel=25
key=F2
lovel=0
offset=4427
sample=Timpani_sustain_P_F2_RR3.opus
</region>

<region>
hivel=25
key=F3
lovel=0
offset=3874
sample=Timpani_sustain_P_F3_RR3.opus
</region>

<region>
hivel=25
key=G#2
lovel=0
offset=4732
sample=Timpani_sustain_P_G#2_RR3.opus
</region>

<region>
hivel=25
key=G#3
lovel=0
sample=Timpani_sustain_P_G#3_RR3.opus
</region>

<region>
hivel=25
key=G2
lovel=0
offset=3638
sample=Timpani_sustain_P_G2_RR3.opus
</region>

<region>
hivel=25
key=G3
lovel=0
offset=310
sample=Timpani_sustain_P_G3_RR3.opus
</region>
</group>

<group>
group_label=RR4
seq_length=4
seq_position=4

<region>
hivel=103
key=A#2
lovel=78
sample=Timpani_sustain_F_A#2_RR4.opus
</region>

<region>
hivel=103
key=A2
lovel=78
sample=Timpani_sustain_F_A2_RR4.opus
</region>

<region>
hivel=103
key=A3
lovel=78
sample=Timpani_sustain_F_A3_RR4.opus
</region>

<region>
hivel=103
key=B2
lovel=78
sample=Timpani_sustain_F_B2_RR4.opus
</region>

<region>
hivel=103
key=C#2
lovel=78
sample=Timpani_sustain_F_C#2_RR4.opus
</region>

<region>
hivel=103
key=C#3
lovel=78
sample=Timpani_sustain_F_C#3_RR4.opus
</region>

<region>
hivel=103
key=C2
lovel=78
sample=Timpani_sustain_F_C2_RR4.opus
</region>

<region>
hivel=103
key=C3
lovel=78
sample=Timpani_sustain_F_C3_RR4.opus
</region>

<region>
hivel=103
key=D#2
lovel=78
sample=Timpani_sustain_F_D#2_RR4.opus
</region>

<region>
hivel=103
key=D#3
lovel=78
sample=Timpani_sustain_F_D#3_RR4.opus
</region>

<region>
hivel=103
key=D2
lovel=78
sample=Timpani_sustain_F_D2_RR4.opus
</region>

<region>
hivel=103
key=D3
lovel=78
sample=Timpani_sustain_F_D3_RR4.opus
</region>

<region>
hivel=103
key=E2
lovel=78
offset=2337
sample=Timpani_sustain_F_E2_RR4.opus
</region>

<region>
hivel=103
key=E3
lovel=78
sample=Timpani_sustain_F_E3_RR4.opus
</region>

<region>
hivel=103
key=F#2
lovel=78
sample=Timpani_sustain_F_F#2_RR4.opus
</region>

<region>
hivel=103
key=F#3
lovel=78
sample=Timpani_sustain_F_F#3_RR4.opus
</region>

<region>
hivel=103
key=F2
lovel=78
sample=Timpani_sustain_F_F2_RR4.opus
</region>

<region>
hivel=103
key=F3
lovel=78
sample=Timpani_sustain_F_F3_RR4.opus
</region>

<region>
hivel=103
key=G#2
lovel=78
sample=Timpani_sustain_F_G#2_RR4.opus
</region>

<region>
hivel=103
key=G#3
lovel=78
sample=Timpani_sustain_F_G#3_RR4.opus
</region>

<region>
hivel=103
key=G2
lovel=78
sample=Timpani_sustain_F_G2_RR4.opus
</region>

<region>
hivel=103
key=G3
lovel=78
sample=Timpani_sustain_F_G3_RR4.opus
</region>

<region>
hivel=127
key=A#2
lovel=104
sample=Timpani_sustain_FF_A#2_RR4.opus
</region>

<region>
hivel=127
key=A2
lovel=104
sample=Timpani_sustain_FF_A2_RR4.opus
</region>

<region>
hivel=127
key=A3
lovel=104
sample=Timpani_sustain_FF_A3_RR4.opus
</region>

<region>
hivel=127
key=B2
lovel=104
sample=Timpani_sustain_FF_B2_RR4.opus
</region>

<region>
hivel=127
key=C#2
lovel=104
sample=Timpani_sustain_FF_C#2_RR4.opus
</region>

<region>
hivel=127
key=C#3
lovel=104
sample=Timpani_sustain_FF_C#3_RR4.opus
</region>

<region>
hivel=127
key=C2
lovel=104
sample=Timpani_sustain_FF_C2_RR4.opus
</region>

<region>
hivel=127
key=C3
lovel=104
sample=Timpani_sustain_FF_C3_RR4.opus
</region>

<region>
hivel=127
key=D#2
lovel=104
sample=Timpani_sustain_FF_D#2_RR4.opus
</region>

<region>
hivel=127
key=D#3
lovel=104
sample=Timpani_sustain_FF_D#3_RR4.opus
</region>

<region>
hivel=127
key=D2
lovel=104
sample=Timpani_sustain_FF_D2_RR4.opus
</region>

<region>
hivel=127
key=D3
lovel=104
sample=Timpani_sustain_FF_D3_RR4.opus
</region>

<region>
hivel=127
key=E2
lovel=104
sample=Timpani_sustain_FF_E2_RR4.opus
</region>

<region>
hivel=127
key=E3
lovel=104
sample=Timpani_sustain_FF_E3_RR4.opus
</region>

<region>
hivel=127
key=F#2
lovel=104
sample=Timpani_sustain_FF_F#2_RR4.opus
</region>

<region>
hivel=127
key=F#3
lovel=104
sample=Timpani_sustain_FF_F#3_RR4.opus
</region>

<region>
hivel=127
key=F2
lovel=104
sample=Timpani_sustain_FF_F2_RR4.opus
</region>

<region>
hivel=127
key=F3
lovel=104
sample=Timpani_sustain_FF_F3_RR4.opus
</region>

<region>
hivel=127
key=G#2
lovel=104
sample=Timpani_sustain_FF_G#2_RR4.opus
</region>

<region>
hivel=127
key=G#3
lovel=104
sample=Timpani_sustain_FF_G#3_RR4.opus
</region>

<region>
hivel=127
key=G2
lovel=104
sample=Timpani_sustain_FF_G2_RR4.opus
</region>

<region>
hivel=127
key=G3
lovel=104
sample=Timpani_sustain_FF_G3_RR4.opus
</region>

<region>
hivel=77
key=A#2
lovel=52
sample=Timpani_sustain_MF_A#2_RR4.opus
</region>

<region>
hivel=77
key=A2
lovel=52
sample=Timpani_sustain_MF_A2_RR4.opus
</region>

<region>
hivel=77
key=A3
lovel=52
sample=Timpani_sustain_MF_A3_RR4.opus
</region>

<region>
hivel=77
key=B2
lovel=52
offset=3711
sample=Timpani_sustain_MF_B2_RR4.opus
</region>

<region>
hivel=77
key=C#2
lovel=52
offset=4953
sample=Timpani_sustain_MF_C#2_RR4.opus
</region>

<region>
hivel=77
key=C#3
lovel=52
sample=Timpani_sustain_MF_C#3_RR4.opus
</region>

<region>
hivel=77
key=C2
lovel=52
offset=3098
sample=Timpani_sustain_MF_C2_RR4.opus
</region>

<region>
hivel=77
key=C3
lovel=52
sample=Timpani_sustain_MF_C3_RR4.opus
</region>

<region>
hivel=77
key=D#2
lovel=52
offset=4575
sample=Timpani_sustain_MF_D#2_RR4.opus
</region>

<region>
hivel=77
key=D#3
lovel=52
sample=Timpani_sustain_MF_D#3_RR4.opus
</region>

<region>
hivel=77
key=D2
lovel=52
offset=1325
sample=Timpani_sustain_MF_D2_RR4.opus
</region>

<region>
hivel=77
key=D3
lovel=52
sample=Timpani_sustain_MF_D3_RR4.opus
</region>

<region>
hivel=77
key=E2
lovel=52
offset=5386
sample=Timpani_sustain_MF_E2_RR4.opus
</region>

<region>
hivel=77
key=E3
lovel=52
sample=Timpani_sustain_MF_E3_RR4.opus
</region>

<region>
hivel=77
key=F#2
lovel=52
offset=615
sample=Timpani_sustain_MF_F#2_RR4.opus
</region>

<region>
hivel=77
key=F#3
lovel=52
sample=Timpani_sustain_MF_F#3_RR4.opus
</region>

<region>
hivel=77
key=F2
lovel=52
offset=4727
sample=Timpani_sustain_MF_F2_RR4.opus
</region>

<region>
hivel=77
key=F3
lovel=52
sample=Timpani_sustain_MF_F3_RR4.opus
</region>

<region>
hivel=77
key=G#2
lovel=52
offset=2854
sample=Timpani_sustain_MF_G#2_RR4.opus
</region>

<region>
hivel=77
key=G#3
lovel=52
sample=Timpani_sustain_MF_G#3_RR4.opus
</region>

<region>
hivel=77
key=G2
lovel=52
sample=Timpani_sustain_MF_G2_RR4.opus
</region>

<region>
hivel=77
key=G3
lovel=52
sample=Timpani_sustain_MF_G3_RR4.opus
</region>

<region>
hivel=51
key=A#2
lovel=26
offset=564
sample=Timpani_sustain_MP_A#2_RR4.opus
</region>

<region>
hivel=51
key=A2
lovel=26
offset=1252
sample=Timpani_sustain_MP_A2_RR4.opus
</region>

<region>
hivel=51
key=A3
lovel=26
offset=2715
sample=Timpani_sustain_MP_A3_RR4.opus
</region>

<region>
hivel=51
key=B2
lovel=26
offset=359
sample=Timpani_sustain_MP_B2_RR4.opus
</region>

<region>
hivel=51
key=C#2
lovel=26
offset=11331
sample=Timpani_sustain_MP_C#2_RR4.opus
</region>

<region>
hivel=51
key=C#3
lovel=26
offset=185
sample=Timpani_sustain_MP_C#3_RR4.opus
</region>

<region>
hivel=51
key=C2
lovel=26
offset=9424
sample=Timpani_sustain_MP_C2_RR4.opus
</region>

<region>
hivel=51
key=C3
lovel=26
offset=1780
sample=Timpani_sustain_MP_C3_RR4.opus
</region>

<region>
hivel=51
key=D#2
lovel=26
offset=4062
sample=Timpani_sustain_MP_D#2_RR4.opus
</region>

<region>
hivel=51
key=D#3
lovel=26
offset=2171
sample=Timpani_sustain_MP_D#3_RR4.opus
</region>

<region>
hivel=51
key=D2
lovel=26
offset=3474
sample=Timpani_sustain_MP_D2_RR4.opus
</region>

<region>
hivel=51
key=D3
lovel=26
offset=2238
sample=Timpani_sustain_MP_D3_RR4.opus
</region>

<region>
hivel=51
key=E2
lovel=26
offset=4857
sample=Timpani_sustain_MP_E2_RR4.opus
</region>

<region>
hivel=51
key=E3
lovel=26
offset=889
sample=Timpani_sustain_MP_E3_RR4.opus
</region>

<region>
hivel=51
key=F#2
lovel=26
offset=3218
sample=Timpani_sustain_MP_F#2_RR4.opus
</region>

<region>
hivel=51
key=F#3
lovel=26
offset=4278
sample=Timpani_sustain_MP_F#3_RR4.opus
</region>

<region>
hivel=51
key=F2
lovel=26
offset=5071
sample=Timpani_sustain_MP_F2_RR4.opus
</region>

<region>
hivel=51
key=F3
lovel=26
offset=2258
sample=Timpani_sustain_MP_F3_RR4.opus
</region>

<region>
hivel=51
key=G#2
lovel=26
offset=2927
sample=Timpani_sustain_MP_G#2_RR4.opus
</region>

<region>
hivel=51
key=G#3
lovel=26
offset=2274
sample=Timpani_sustain_MP_G#3_RR4.opus
</region>

<region>
hivel=51
key=G2
lovel=26
sample=Timpani_sustain_MP_G2_RR4.opus
</region>

<region>
hivel=51
key=G3
lovel=26
offset=1488
sample=Timpani_sustain_MP_G3_RR4.opus
</region>

<region>
hivel=25
key=A#2
lovel=0
offset=1581
sample=Timpani_sustain_P_A#2_RR4.opus
</region>

<region>
hivel=25
key=A2
lovel=0
offset=2403
sample=Timpani_sustain_P_A2_RR4.opus
</region>

<region>
hivel=25
key=A3
lovel=0
offset=1839
sample=Timpani_sustain_P_A3_RR4.opus
</region>

<region>
hivel=25
key=B2
lovel=0
offset=2185
sample=Timpani_sustain_P_B2_RR4.opus
</region>

<region>
hivel=25
key=C#2
lovel=0
offset=9232
sample=Timpani_sustain_P_C#2_RR4.opus
</region>

<region>
hivel=25
key=C#3
lovel=0
offset=3053
sample=Timpani_sustain_P_C#3_RR4.opus
</region>

<region>
hivel=25
key=C2
lovel=0
offset=1760
sample=Timpani_sustain_P_C2_RR4.opus
</region>

<region>
hivel=25
key=C3
lovel=0
offset=3479
sample=Timpani_sustain_P_C3_RR4.opus
</region>

<region>
hivel=25
key=D#2
lovel=0
offset=4063
sample=Timpani_sustain_P_D#2_RR4.opus
</region>

<region>
hivel=25
key=D#3
lovel=0
offset=3312
sample=Timpani_sustain_P_D#3_RR4.opus
</region>

<region>
hivel=25
key=D2
lovel=0
offset=4540
sample=Timpani_sustain_P_D2_RR4.opus
</region>

<region>
hivel=25
key=D3
lovel=0
offset=1918
sample=Timpani_sustain_P_D3_RR4.opus
</region>

<region>
hivel=25
key=E2
lovel=0
offset=2966
sample=Timpani_sustain_P_E2_RR4.opus
</region>

<region>
hivel=25
key=E3
lovel=0
offset=889
sample=Timpani_sustain_P_E3_RR4.opus
</region>

<region>
hivel=25
key=F#2
lovel=0
offset=2082
sample=Timpani_sustain_P_F#2_RR4.opus
</region>

<region>
hivel=25
key=F#3
lovel=0
offset=4600
sample=Timpani_sustain_P_F#3_RR4.opus
</region>

<region>
hivel=25
key=F2
lovel=0
offset=301
sample=Timpani_sustain_P_F2_RR4.opus
</region>

<region>
hivel=25
key=F3
lovel=0
sample=Timpani_sustain_P_F3_RR4.opus
</region>

<region>
hivel=25
key=G#2
lovel=0
offset=2776
sample=Timpani_sustain_P_G#2_RR4.opus
</region>

<region>
hivel=25
key=G#3
lovel=0
offset=1687
sample=Timpani_sustain_P_G#3_RR4.opus
</region>

<region>
hivel=25
key=G2
lovel=0
offset=2717
sample=Timpani_sustain_P_G2_RR4.opus
</region>

<region>
hivel=25
key=G3
lovel=0
offset=1118
sample=Timpani_sustain_P_G3_RR4.opus
</region>
</group>
